<?xml version="1.0" encoding="iso-8859-1"?>
<!-- Generator: Adobe Illustrator 19.0.0, SVG Export Plug-In . SVG Version: 6.00 Build 0)  -->
<svg version="1.1" id="Capa_1" xmlns="http://www.w3.org/2000/svg" xmlns:xlink="http://www.w3.org/1999/xlink" x="0px" y="0px"
	 viewBox="0 0 325 325" style="enable-background:new 0 0 325 325;" xml:space="preserve">
<path id="XMLID_1179_" d="M318.654,227.057L176.346,131.93v-11.207c26.567-6.709,46.29-30.812,46.29-59.434
	c0-33.796-27.494-61.29-61.29-61.29c-33.795,0-61.29,27.494-61.29,61.29h30c0-17.253,14.037-31.29,31.29-31.29
	c17.253,0,31.29,14.037,31.29,31.29s-14.037,31.29-31.29,31.29h-15v39.35l-140,93.584l0,84.485h81.172v15h30v-15h90v15h30v-15
	h80.027L318.654,227.057z M287.943,280h-50.426v-15h-30v15h-90v-15h-30v15H36.346l0-38.454l125-83.557l127.094,84.956L287.943,280z"
	/>
<g>
</g>
<g>
</g>
<g>
</g>
<g>
</g>
<g>
</g>
<g>
</g>
<g>
</g>
<g>
</g>
<g>
</g>
<g>
</g>
<g>
</g>
<g>
</g>
<g>
</g>
<g>
</g>
<g>
</g>
</svg>
