<svg xmlns="http://www.w3.org/2000/svg" version="1.1" viewBox="0 0 1200 800" width="1200" height="800">
<rect fill="rgb(255,255,255)" x="0" y="0" width="1200" height="800"/><defs/><!--ITEM: Illustration component 1--><g transform="translate(635.0 131.0) rotate(0.0 233.0 260.5)  scale(0.4850786274981289 0.4857790740174396)"><svg width="960.669" height="1072.504" viewBox="0.0 0.0 960.669 1072.504"><path d="m186.19 1007.8-7.358-337.687c0-6.052 27.418-6.052 27.418 0l-7.359 337.687c0 6.055-12.701 6.055-12.701 0z" fill="#000000"/><path d="m756.634 1007.8-7.359-337.687c0-6.052 27.418-6.052 27.418 0l-7.358 337.687c0 6.055-12.701 6.055-12.701 0z" fill="#000000"/><rect height="58.274" rx="12" transform="matrix(-1 -0 0 -1 955.525 1351.393)" width="642.258" x="156.634" y="646.56" fill="#000000"/><path d="m786.891 710.833h-618.257a18.019 18.019 0 0 1 -18-18v-34.273a18.02 18.02 0 0 1 18-18h618.257a18.02 18.02 0 0 1 18 18v34.273a18.019 18.019 0 0 1 -18 18zm-618.257-58.273a6.006 6.006 0 0 0 -6 6v34.273a6.006 6.006 0 0 0 6 6h618.257a6.006 6.006 0 0 0 6-6v-34.273a6.006 6.006 0 0 0 -6-6z" fill="#000000"/><path d="m679.913 662.343c-17.873-38.3-101.9-115.053-101.9-115.053h-206.713s-53.529 50.039-76.833 87.534c-15.151 24.378-21.929 47.524-22.732 80.309s30.888 215.867 30.888 215.867c18.951 12.1 39.833 7.137 60.275 0 23.629-118.766 15.344-146.544 13.063-207.163 14.2-5.733 94.973-65.313 94.973-65.313l99.5 70.73c-3.8 64.255 8.841 118.058 17.671 198.959 17.483 6.892 48.664 1.8 65.835-5.364 0 0 28.12-125.275 32.171-174.128 2.694-32.467 7.861-56.251-6.198-86.378z" fill="rgb(14,211,207)"/><path d="m328.37 944.292a52.442 52.442 0 0 1 -28.976-8.233 6 6 0 0 1 -2.683-4.033c-1.3-7.5-31.781-184.044-30.973-217.04.82-33.5 7.668-57.639 23.635-83.329 23.453-37.735 75.621-86.684 77.83-88.75a6.006 6.006 0 0 1 4.1-1.617h206.711a6 6 0 0 1 4.047 1.57c3.467 3.167 85.119 78.009 103.289 116.946 12.737 27.293 10.533 49.876 7.981 76.023-.421 4.316-.857 8.778-1.239 13.39-4.038 48.706-31.143 169.814-32.295 174.946a6 6 0 0 1 -3.543 4.223c-16.466 6.874-50.21 13.347-70.347 5.409a6 6 0 0 1 -3.764-4.931c-2.606-23.865-5.5-45.046-8.3-65.529-6.34-46.394-11.835-86.618-9.582-131.107l-93.261-66.299c-15.683 11.52-70.159 51.277-88.883 61.547.387 9.1.9 17.487 1.394 25.637 2.628 43.164 4.9 80.441-14.723 179.058a6 6 0 0 1 -3.907 4.494c-11.973 4.179-24.331 7.624-36.511 7.625zm-20.3-17.025c14.3 7.936 30.345 5.6 49.615-.824 18.6-94.525 16.5-129.038 13.844-172.6-.57-9.359-1.159-19.037-1.563-29.779a6 6 0 0 1 3.75-5.79c9.9-4 61.435-40.809 93.658-64.578a6 6 0 0 1 7.037-.061l99.5 70.73a6 6 0 0 1 2.514 5.244c-2.642 44.651 2.9 85.177 9.308 132.1 2.658 19.454 5.4 39.536 7.911 61.992 12.662 3.3 35.752 2.058 55.13-5.256 4.332-19.57 27.74-126.584 31.358-170.22.39-4.7.83-9.206 1.255-13.564 2.479-25.4 4.437-45.464-6.912-69.784-15.785-33.825-86.853-100.512-98.806-111.59h-201.978c-9.27 8.84-53.824 52.036-74.126 84.7-14.742 23.723-21.065 46.113-21.831 77.293-.727 29.682 26.417 189.151 30.335 211.987z" fill="rgb(14,211,207)"/><path d="m378.242 729.839a5.994 5.994 0 0 1 -1.915-.314c-.13-.043-14.148-4.628-24.489-1.079a6 6 0 1 1 -3.9-11.35c6.537-2.243 13.706-2.255 19.623-1.589a27.525 27.525 0 0 0 -12.259-7.94 6 6 0 1 1 3.08-11.6c.862.229 21.158 5.844 25.715 26.583a6 6 0 0 1 -5.86 7.287z" fill="#000000"/><path d="m569.166 735.447a6 6 0 0 1 -5.96-6.7c.162-1.371 2.078-13.64 19.46-22.238a6 6 0 0 1 5.321 10.756 35.508 35.508 0 0 0 -5.782 3.535c1.437-.044 2.948-.028 4.531.066a6 6 0 0 1 -.715 11.979 33.54 33.54 0 0 0 -14.348 2.054 6 6 0 0 1 -2.507.548z" fill="#000000"/><path d="m512.677 164.847c-.029 14.964 1.629 32.465 12.416 36.748 14.192 5.636 49.06-2.259 83.287 15.146 33.9 17.24 209.724 179.85 144.238 234.469-12.17 10.151-71.425 11.761-98.046-19.638.436-20.785-1.52-42.336-12.738-47.142a110.458 110.458 0 0 1 22.486-1.84c-14.56-7.488-59.172-46.536-59.463-47.284 3.887 58.649-11.243 158.315-15.69 203.809 0 6.945 6.772 20.735 2.883 23.3-29.232 19.245-207.931 16.566-234.317-2.385-3.606-2.591 4.871-11.129 5.853-25.486-10.027-38.947-10.622-152.2-8.109-196.192.589-.185-49.52 45.781-91.1 50.972-38.339 4.787-74.3-49.537-93.57-112.11-10.9-27.009-17.438-63.963-12.744-85.9 27.788-11.987 35.695-2 65.862 7.647 0 0 18.553-9.6 19.334 5.825 1.571 31-23.318 34.152-19.418 51.917 6.045 22.677 24.358 39.338 35.842 59.934 15.417-32.009 50.011-96.042 94.729-108.028 27.45-7.358 52.719.486 67.737-11.295 11.18-8.77 12.416-19.416 12.416-32.465" fill="#fff"/><path d="m260.048 395.632c-42.982.008-77.432-61.618-94.352-116.405-13.725-34.133-16.909-70.669-12.951-89.165a6 6 0 0 1 3.491-4.254c23.589-10.175 35.074-5.7 52.458 1.062 4.5 1.75 9.529 3.709 15.406 5.662 4.225-1.768 12.5-4.318 18.894-.645 2.9 1.665 6.431 5.2 6.806 12.6.978 19.28-7.385 29.488-13.491 36.941-4.823 5.888-7.115 8.961-6.085 13.871 3.55 13.184 11.71 24.346 20.349 36.163 3.043 4.163 6.146 8.409 9.085 12.813 21.577-42.412 54.112-90.833 93.749-101.457 12.522-3.357 24.489-3.716 35.048-4.033 12.639-.38 23.555-.708 30.54-6.187 8.6-6.75 10.119-14.325 10.119-27.745a6 6 0 0 1 12 0c0 12.977-1.137 26.536-14.713 37.186-10.088 7.914-23.445 8.315-37.586 8.74-10.387.312-21.129.635-32.3 3.63-30.334 8.13-61.759 44.382-90.875 104.836a6 6 0 0 1 -10.646.318c-4.048-7.259-9.162-14.254-14.107-21.019-8.939-12.229-18.183-24.873-22.293-40.291-.023-.086-.044-.173-.063-.259-2.389-10.882 3.4-17.942 8.5-24.171 5.669-6.92 11.531-14.077 10.789-28.729-.085-1.666-.462-2.607-.8-2.8-1.552-.89-6.624.366-9.787 2a6 6 0 0 1 -4.585.386c-7.187-2.3-13.093-4.6-18.3-6.626-15.79-6.147-23.451-9.129-40.415-2.441-3 19.745 2.355 53.008 12.992 79.36.064.157.12.317.171.48 9.779 31.751 23.5 59.948 38.635 79.395 11.189 14.377 28.674 31 48.457 28.527 35.9-4.482 80.486-42.64 86.7-48.889a6 6 0 0 1 10.253 5.865c-.492 1.4-.764 2.166-10.239 10.071-4.832 4.031-12.552 10.187-21.889 16.623-23.9 16.473-45.209 25.973-63.343 28.237a45.285 45.285 0 0 1 -5.622.35z" fill="#000000"/><path d="m484.464 581.611q-5.06 0-10.165-.062c-26.62-.326-52.591-1.92-73.13-4.488-23.673-2.96-39.28-7.049-46.388-12.155-5.657-4.062-2.922-10.554-.925-15.293 1.655-3.927 3.7-8.779 4.235-14.767-5.029-28.325-8.786-69.509-10.064-110.4-1.433-45.89.42-84.587 5.219-108.963a6 6 0 0 1 11.774 2.317c-9.777 49.659-5.249 158.6 5.018 215.687a5.943 5.943 0 0 1 .081 1.471c-.568 8.313-3.358 14.934-5.205 19.316-.288.684-.627 1.488-.913 2.213 13.991 7.13 58.152 12.423 110.445 13.064 53.559.658 99.262-3.93 113.3-11.241a66.7 66.7 0 0 0 -1.743-7.346c-1.126-4.082-2.291-8.3-2.291-11.841q0-.291.028-.584c1.031-10.539 2.6-23.731 4.423-39.008 6-50.318 14.208-119.23 11.253-163.819a6 6 0 1 1 11.973-.794c3.029 45.7-5.258 115.249-11.31 166.033-1.793 15.044-3.343 28.058-4.362 38.416a47.838 47.838 0 0 0 1.854 8.4c2.13 7.72 4.333 15.7-1.676 19.659-7.752 5.1-23.877 8.928-47.927 11.369-18.08 1.839-40.32 2.816-63.504 2.816z" fill="#000000"/><path d="m493.771 555.6c-7.677 0-14.175-.1-18.681-.192-16.726-.354-100.884-2.811-115.122-16.544a6 6 0 1 1 8.33-8.637c.488.47 5.642 4.7 36.06 8.516 19.616 2.457 44.826 4.115 70.985 4.667 63.136 1.335 103.215-3.937 110.169-9.832a6 6 0 0 1 7.759 9.153c-13.111 11.118-66.925 12.869-99.5 12.869z" fill="#000000"/><path d="m64.052 467.487h832.565v116.309h-832.565z" fill="#fff" transform="matrix(-1 -0 0 -1 960.669 1051.283)"/><path d="m896.617 589.8h-832.565a6 6 0 0 1 -6-6v-116.313a6 6 0 0 1 6-6h832.565a6 6 0 0 1 6 6v116.313a6 6 0 0 1 -6 6zm-826.565-12h820.565v-104.313h-820.565z" fill="#000000"/><path d="m69.052 482.42h-42.912l10 572.644h22.912z" fill="#fff"/><path d="m59.052 1061.063h-22.912a6 6 0 0 1 -6-5.9l-10-572.643a6 6 0 0 1 6-6.1h42.912a6 6 0 0 1 6 6.1l-10 572.643a6 6 0 0 1 -6 5.9zm-17.016-12h11.12l9.791-560.643h-30.7z" fill="#000000"/><path d="m934.529 482.42h-42.912l10 572.644h22.912z" fill="#fff"/><path d="m924.529 1061.063h-22.912a6 6 0 0 1 -6-5.9l-10-572.643a6 6 0 0 1 6-6.1h42.912a6 6 0 0 1 6 6.1l-10 572.643a6 6 0 0 1 -6 5.9zm-17.016-12h11.12l9.791-560.643h-30.7z" fill="#000000"/><rect fill="#fff" height="24.826" rx="11.761" transform="matrix(-1 -0 0 -1 960.669 940.015)" width="948.669" x="6" y="457.594"/><path d="m942.909 488.42h-925.148a17.78 17.78 0 0 1 -17.761-17.76v-1.305a17.78 17.78 0 0 1 17.761-17.761h925.148a17.78 17.78 0 0 1 17.76 17.761v1.305a17.78 17.78 0 0 1 -17.76 17.76zm-925.148-24.826a5.768 5.768 0 0 0 -5.761 5.761v1.305a5.767 5.767 0 0 0 5.761 5.76h925.148a5.767 5.767 0 0 0 5.76-5.76v-1.305a5.767 5.767 0 0 0 -5.76-5.761z" fill="#000000"/><path d="m302.623 931c24.152 14.5 60.275 0 60.275 0l-2 85.477s-37.346 36.585-67.468 44.409c-15.524 4.6-32.241 5.506-43.559 0s-12.718-12.574-12.718-12.574l-.041-24.113s-2.112-22.105 32.748-39.95c26.832-13.735 32.763-53.249 32.763-53.249z" fill="#fff"/><path d="m269.171 1070.69c-8.383 0-15.888-1.47-21.924-4.406-13.608-6.62-15.777-15.781-15.98-16.8a6.063 6.063 0 0 1 -.114-1.155l-.04-23.948c-.17-3.458.069-27.069 36.013-45.469 23.718-12.141 29.509-48.438 29.565-48.8a6 6 0 0 1 9.022-4.245c21.262 12.769 54.621-.294 54.956-.427a6 6 0 0 1 8.228 5.71l-2 85.477a6 6 0 0 1 -1.8 4.146c-1.57 1.538-38.769 37.721-70.058 45.9a92.266 92.266 0 0 1 -25.868 4.017zm-26.019-23.332c.536 1.235 2.6 4.856 9.344 8.135 9.017 4.386 23.681 4.253 39.229-.357.065-.02.131-.038.2-.055 24.668-6.408 55.458-34.141 63.036-41.234l1.743-74.49c-11.307 3.2-31.964 7.171-49.807.356-3.336 13.02-12.469 38.7-34.3 49.877-30.292 15.506-29.547 33.384-29.5 34.137a2.246 2.246 0 0 1 .019.464z" fill="#000000"/><path d="m276.154 980.96c16.718 4.883 21.639 16.362 21.639 16.362" fill="#fff"/><path d="m297.8 1003.324a6 6 0 0 1 -5.517-3.638c-.14-.3-4.279-9.015-17.807-12.966a6 6 0 0 1 3.364-11.519c19.215 5.612 25.225 19.182 25.472 19.757a6 6 0 0 1 -5.512 8.366z" fill="#000000"/><path d="m288.455 968.272c12.867 2.279 22.959 11.4 22.959 11.4" fill="#fff"/><path d="m311.412 985.671a5.98 5.98 0 0 1 -4.021-1.548c-.078-.07-9.05-8.006-19.982-9.943a6 6 0 1 1 2.093-11.816c14.4 2.55 25.471 12.436 25.935 12.856a6 6 0 0 1 -4.025 10.451z" fill="#000000"/><path d="m299.277 948.619c10.44 7.512 24.275 8.936 24.275 8.936" fill="#fff"/><path d="m323.559 963.555a6.21 6.21 0 0 1 -.621-.032c-.63-.065-15.56-1.683-27.166-10.034a6 6 0 0 1 7.009-9.741c8.958 6.446 21.274 7.826 21.4 7.839a6 6 0 0 1 -.619 11.968z" fill="#000000"/><path d="m237.113 1024.2s2.5 10.708 16.6 15.544c17.936 6.149 34.134 1.149 49.986-5.893 10.723-4.764 57.741-40.522 57.741-40.522" fill="#fff"/><path d="m270.3 1048.535a56.634 56.634 0 0 1 -18.537-3.114c-17.046-5.846-20.364-19.286-20.5-19.856l11.686-2.728-.024-.1c.085.313 2.2 7.717 12.728 11.329 15.352 5.262 29.332 1.527 45.6-5.7 7.4-3.287 37.869-25.611 56.545-39.814a6 6 0 1 1 7.264 9.551c-4.87 3.7-47.893 36.323-58.937 41.229-11.125 4.951-22.994 9.203-35.825 9.203z" fill="#000000"/><path d="m293.074 1038.14s2.461-20.759-19.217-34.779c-8.87-5.737-22.238-5.737-22.238-5.737" fill="#fff"/><path d="m293.081 1044.141a6.183 6.183 0 0 1 -.714-.042 6 6 0 0 1 -5.256-6.626c.081-.8 1.5-17.423-16.512-29.074-6.057-3.917-15.754-4.775-18.98-4.775a6 6 0 1 1 0-12c.618 0 15.257.076 25.5 6.7 24.535 15.868 22.035 39.524 21.917 40.524a6 6 0 0 1 -5.955 5.293z" fill="#000000"/><path d="m332.144 1018.781a6.085 6.085 0 0 1 -1.026-.088 6 6 0 0 1 -4.894-6.931c7.491-43.489 31.986-49.142 33.025-49.361l2.478 11.741.106-.023c-.723.181-17.782 4.841-23.783 39.68a6 6 0 0 1 -5.906 4.982z" fill="#000000"/><path d="m579.277 1010.605 8.83-82.39c23.776 3.2 55.1 2.663 65.835-5.364 0 0-4.149 18.031-3.458 27.659s24.889 28.178 35.95 35.437 26.271 19.828 26.271 39.493v20.788s-3.264 12.444-31.088 12.444c-26.276 0-39.429-8.988-39.429-8.988z" fill="#fff"/><path d="m681.617 1064.672c-26.636 0-40.974-8.828-42.664-9.934l-62.842-39.038a6 6 0 0 1 -2.8-5.737l8.83-82.389a6 6 0 0 1 6.768-5.307c26.068 3.512 53.629 1.618 61.439-4.223a6 6 0 0 1 9.441 6.15c-1.1 4.777-3.834 18.738-3.32 25.884.343 4.78 16.816 20.061 33.257 30.851 19.5 12.8 28.979 27.355 28.979 44.509v20.787a6.006 6.006 0 0 1 -.2 1.522c-.45 1.735-5.345 16.925-36.888 16.925zm-95.973-57.172 59.71 37.091c.075.046.147.094.22.142s12.256 7.942 36.043 7.942c18.688 0 23.928-5.94 25.088-7.745v-19.49c0-12.8-7.708-24.072-23.563-34.476-3.842-2.522-37.568-25.067-38.642-40.025-.369-5.139.46-12.194 1.415-18.111-15.334 4.149-37.569 3.542-52.487 2.047z" fill="#000000"/><path d="m644.162 996.931a6 6 0 0 1 -4.7-9.732c10.754-13.541 32.737-16.219 33.668-16.326a6 6 0 0 1 1.385 11.92c-4.985.592-19.31 3.879-25.655 11.869a5.993 5.993 0 0 1 -4.698 2.269z" fill="#000000"/><path d="m628.767 981.972a6 6 0 0 1 -3.682-10.742c15.9-12.333 31.053-14.7 31.69-14.8a6 6 0 0 1 1.785 11.87c-.278.046-12.913 2.168-26.12 12.413a5.977 5.977 0 0 1 -3.673 1.259z" fill="#000000"/><path d="m627.29 956.256a61.8 61.8 0 0 1 -11.637-1.124 6 6 0 1 1 2.254-11.786c17.91 3.424 28.88-3.792 29.339-4.1a6 6 0 0 1 6.826 9.87c-.504.35-10.472 7.14-26.782 7.14z" fill="#000000"/><path d="m644.935 1034.174a6 6 0 0 1 -5.844-7.354 53.337 53.337 0 0 1 10.869-20.32c7.691-9.054 22.062-19.687 46.712-18.968a6 6 0 0 1 -.352 12c-37.522-1.11-45.241 28.786-45.552 30.059a6.019 6.019 0 0 1 -5.833 4.583z" fill="#000000"/><path d="m682.76 1043.267c-.668 0-1.344-.009-2.033-.029-23.533-.693-34.352-7.1-36.228-8.33l-65.322-39.408a6 6 0 1 1 6.2-10.275l65.443 39.482c.108.065.213.134.317.206.024.014 8.957 5.713 29.943 6.331 19.492.568 26.4-8.8 26.682-9.2l4.944 3.4 5 3.319c-.406.604-9.936 14.504-34.946 14.504z" fill="#000000"/><path d="m664.863 388.6a5.972 5.972 0 0 1 -2.74-.666c-8.168-4.2-24.177-16.94-36.168-26.887-7.752-6.429-14.059-11.882-17.129-14.56-8.346-7.282-8.409-7.444-9.013-9a6 6 0 0 1 10.166-6.06c3.461 3.378 44.584 39.122 57.633 45.833a6 6 0 0 1 -2.749 11.337zm-53.869-55.467v.007z" fill="#000000"/><path d="m655.12 431.577c-30.28-1.565-91.657-10.676-91.657-10.676.56-21.538 18.35-31.279 26.564-35.507 7.542-3.882 34.9-3.894 52.355-.959 9.348 3.085 14.727 29.904 12.738 47.142z" fill="#fff"/><path d="m655.124 437.577c-.105 0-.209 0-.314-.008-30.219-1.561-89.71-10.359-92.228-10.733a6 6 0 0 1 -5.117-6.091c.668-25.682 22.606-36.975 29.816-40.686 9.81-5.049 39.776-4.285 56.1-1.541a6.024 6.024 0 0 1 .885.22c14.543 4.8 18.679 37.4 16.818 53.527a6 6 0 0 1 -5.96 5.312zm-85.087-21.786c14.68 2.1 54.4 7.61 79.517 9.425.439-16.671-5.143-33.051-8.777-34.964-18.19-2.953-42.712-2.248-48 .476-9.435 4.855-20.147 12.009-22.74 25.063z" fill="#000000"/><path d="m722.838 463.743a123.117 123.117 0 0 1 -13.96-.805c-14.493-1.661-41.344-7.44-58.335-27.481a6 6 0 0 1 -1.422-4.006c.68-32.425-5.411-39.919-9.1-41.5a6 6 0 0 1 1.071-11.375c1.389-.305 34.423-7.331 71.167 6.826a6 6 0 0 1 -4.315 11.2c-21.069-8.117-41.131-8.5-53.073-7.681 5.652 10.7 6.462 26.952 6.289 40.429 14.413 15.568 36.779 20.259 49.086 21.669 20.269 2.323 35.3-1.257 39.079-4.409 9.7-8.091 13.616-19.129 11.967-33.741-3.209-28.436-28.134-69.381-70.186-115.293-36.138-39.457-72.524-69.187-84.9-75.478-20.715-10.534-41.6-11.269-58.388-11.86-10.233-.36-18.316-.644-24.394-3.058-14.586-5.791-16.232-26.936-16.2-42.336a6 6 0 0 1 6-5.989h.013a6 6 0 0 1 5.988 6.012c-.037 18.388 2.867 28.872 8.63 31.16 4.147 1.647 11.673 1.912 20.387 2.219 17.018.6 40.325 1.419 63.406 13.155 15.125 7.692 53.187 39.726 88.306 78.07 56.076 61.224 70.791 100.166 73.261 122.052 2.107 18.671-3.346 33.577-16.206 44.3-6.028 5.027-19.124 7.919-34.171 7.92z" fill="#000000"/><path d="m269.925 273.563h51.376v32.19h-51.376z" fill="#fff" transform="matrix(-1 -0 0 -1 591.226 579.317)"/><path d="m321.3 311.753h-51.375a6 6 0 0 1 -6-6v-32.19a6 6 0 0 1 6-6h51.375a6 6 0 0 1 6 6v32.19a6 6 0 0 1 -6 6zm-45.376-12h39.376v-20.19h-39.375z" fill="#000000"/><path d="m556.8 367.2v-125.614h-18.818s1.2 26.292-72.863 26.292c-67.839 0-88.12-27.183-127.053-14.116-53.539 17.969-7.712 127.2-38.283 166.988h90.017c-18.386-26.788-16-70.6 8.446-91.146 42.726-35.924 117.77-39.946 129.644-.887a108.038 108.038 0 0 1 4.19 38.43l24.721.053" fill="#fff"/><path d="m389.8 426.749h-90.017a6 6 0 0 1 -4.758-9.655c11.971-15.582 10.846-45.374 9.758-74.185-1.546-40.928-3.145-83.25 31.374-94.835 22.332-7.5 39.515-2.646 59.412 2.969 18 5.079 38.395 10.835 69.55 10.835 53.491 0 66.338-14.382 66.854-20.132a5.426 5.426 0 0 1 1.456-4.376 5.809 5.809 0 0 1 4.553-1.784h18.818a6 6 0 0 1 6 6v125.614a6 6 0 0 1 -6 6h-.013l-24.721-.053a6 6 0 0 1 -5.954-6.631 103.041 103.041 0 0 0 -3.964-36.053c-3.758-12.364-14.946-18.043-23.67-20.63-28.406-8.424-69.836 2.051-96.372 24.363-10.239 8.609-16.859 22.868-18.164 39.122-1.293 16.1 2.645 32.15 10.8 44.036a6 6 0 0 1 -4.947 9.4zm-79.575-12h69.236a84.085 84.085 0 0 1 -7.48-42.391c1.583-19.716 9.539-36.531 22.4-47.346 29.356-24.682 75.575-36.154 107.507-26.684 16.56 4.911 27.535 14.816 31.739 28.645a115.59 115.59 0 0 1 4.738 34.188l12.433.026v-113.6h-8.068a24.859 24.859 0 0 1 -5.271 7.988c-11.6 12.146-35.942 18.3-72.34 18.3-32.816 0-54.991-6.258-72.81-11.286-19.455-5.491-33.513-9.458-52.334-3.142-26.006 8.729-24.644 44.808-23.2 83.006.988 26.178 2.004 53.108-6.553 72.296z" fill="#000000"/><path d="m544.657 426.749a6 6 0 0 1 -6-6v-53.573a6 6 0 0 1 12 0v53.573a6 6 0 0 1 -6 6z" fill="#000000"/><rect fill="#fff" height="131.647" rx="14.195" transform="matrix(-1 0 -0 -1 539.851 579.317)" width="28.39" x="255.73" y="223.835"/><path d="m269.925 361.482a20.219 20.219 0 0 1 -20.2-20.2v-103.252a20.2 20.2 0 1 1 40.39 0v103.257a20.218 20.218 0 0 1 -20.19 20.195zm0-131.647a8.2 8.2 0 0 0 -8.195 8.195v103.257a8.195 8.195 0 1 0 16.39 0v-103.257a8.2 8.2 0 0 0 -8.195-8.195z" fill="#000000"/><path d="m255.73 244.03h-6.751a6 6 0 0 1 -6-6v-36.87h-15.979a6 6 0 0 1 0-12h21.978a6 6 0 0 1 6 6v36.87h.751a6 6 0 1 1 0 12z" fill="#000000"/><rect height="11.887" rx="5.852" transform="matrix(-1 0 -0 -1 398.356 390.319)" width="55.646" x="171.355" y="189.216" fill="#000000"/><path d="m221.149 207.1h-43.942a11.865 11.865 0 0 1 -11.852-11.852v-.183a11.866 11.866 0 0 1 11.852-11.852h43.942a11.866 11.866 0 0 1 11.851 11.855v.183a11.865 11.865 0 0 1 -11.851 11.849z" fill="#000000"/><path d="m231.587 420.75h393.407v36.844h-393.407z" fill="#fff"/><path d="m624.993 463.594h-393.406a6 6 0 0 1 -6-6v-36.845a6 6 0 0 1 6-6h393.406a6 6 0 0 1 6 6v36.845a6 6 0 0 1 -6 6zm-387.406-12h381.406v-24.845h-381.406z" fill="#000000"/><path d="m211.686 222.063c8.891 4 15.622-27.541 7.546-36.384-12.795-14.01-56.814-6.509-60.62 5.638-4.414 14.088-.319 27.72 4.046 31.511s8.536-4.463 14.677.485c5.721 4.609 14.934-1.377 19.363 1.56 4.326 2.868 6.695-6.54 14.988-2.81z" fill="#fff"/><path d="m198.285 231.442a8.639 8.639 0 0 1 -4.654-1.408 22.163 22.163 0 0 0 -4.07.433c-4.537.734-10.752 1.739-15.99-2.482a1.781 1.781 0 0 0 -.482-.312 11.5 11.5 0 0 0 -1.948.71c-2.46 1.031-7.577 3.178-12.418-1.025-3.4-2.955-6.057-8.553-7.285-15.359a47.356 47.356 0 0 1 1.449-22.476c2.951-9.419 16.607-13.757 24.485-15.5 16.284-3.61 36.91-2.657 46.29 7.613 8.551 9.363 5.292 32.441-1.212 41.425-5.286 7.3-11.46 5.272-13.226 4.478-1.382-.621-1.593-.566-3.747 1.007-1.364.992-3.972 2.896-7.192 2.896zm-25.072-15.753a12.293 12.293 0 0 1 7.887 2.952c1.074.866 3.981.4 6.546-.02 3.38-.546 7.146-1.155 10.633.319l.122-.09c2.414-1.762 7.276-5.312 14.345-2.821 1.266-1.745 3.214-6.357 3.894-13.019.711-6.966-.455-11.77-1.838-13.285-5.073-5.554-20.047-7.269-34.831-3.991-10.924 2.423-15.282 6.255-15.633 7.377-3.6 11.5-.445 21.366 1.622 24.43l.539-.224a17.082 17.082 0 0 1 6.714-1.628z" fill="#000000"/><path d="m477.278 225.014q-1.559 0-3.076-.041c-22.361-.588-49.074-7.519-56.981-25.207a6 6 0 1 1 10.955-4.9c4.57 10.222 23.193 17.5 46.341 18.108 22.05.579 41.3-5.354 45.782-14.11a6 6 0 1 1 10.683 5.467c-7.853 15.347-33.145 20.683-53.704 20.683z" fill="#000000"/><path d="m171.357 283.219a6 6 0 0 1 -2.166-11.6l53.034-20.511a6 6 0 1 1 4.329 11.193l-53.034 20.513a5.993 5.993 0 0 1 -2.163.405z" fill="#000000"/><path d="m411.988 91.066s-12.543-21.959 1.754-50.966c12.827-26.023 44.375-34.1 64.945-34.1s48.813 6.925 65.113 31.51c22.819 34.421 1.587 73.281 1.587 73.281-5.119-23.806-32.448-26.083-64.977-18.034-45.294 11.208-80.73 3.949-84.414-27.821 0 0 23.2 6.9 38.632-9.523 11.6-12.345 23.187-23.246 47.678-30.471" fill="rgb(14,211,207)"/><path d="m545.388 116.791a5.859 5.859 0 0 1 -.864-.062 6 6 0 0 1 -5-4.676c-1.25-5.812-4.086-10.028-8.669-12.89-9.532-5.953-26.477-6.153-49-.58-29.43 7.282-54.054 6.7-70.272-1.541a5.965 5.965 0 0 1 -4.623-2.71q-.225-.151-.449-.306c-9.51-6.6-15.052-16.151-16.472-28.4a6 6 0 0 1 7.671-6.442 31.057 31.057 0 0 0 3.707.766 71.5 71.5 0 0 1 6.948-22.5c13.619-27.643 46.394-37.45 70.322-37.45 14.265 0 49.653 3.332 70.113 34.194 24.536 37.012 2.79 77.758 1.852 79.474a6 6 0 0 1 -5.264 3.123zm-35.05-34.238c11.019 0 20 2.145 26.869 6.431a30.556 30.556 0 0 1 7.671 6.745c3.96-13.215 7.061-35.08-6.081-54.9-17.246-26.021-47.782-28.829-60.11-28.829-32.776 0-52.571 16.566-59.563 30.753a60.341 60.341 0 0 0 -5.591 17.207 28.689 28.689 0 0 0 16.72-8.654c12.274-13.066 24.534-24.5 50.353-32.118a6 6 0 0 1 3.394 11.512c-22.971 6.776-33.554 16.637-45 28.824a40.715 40.715 0 0 1 -25.99 12.588 45.309 45.309 0 0 0 3.175 13.809c13.427 7.377 35.511 7.764 62.783 1.015q17.708-4.383 31.37-4.383z" fill="rgb(14,211,207)"/><path d="m414.422 92.483c-1.843 7.321-2.447 10.787-2.434 18.308.076 43.645 29.862 79.025 66.7 79.025s66.7-35.38 66.7-79.025c-3.216-18.2-25.819-28.568-66.9-17.678-43.374 11.499-64.066-.63-64.066-.63z" fill="#fff"/><path d="m478.687 195.816c-40 0-72.617-38.137-72.7-85.014-.014-7.979.641-11.938 2.615-19.783a6 6 0 0 1 8.808-3.738c.394.216 19.826 10.562 59.54.032 26.3-6.97 47.31-6.112 60.769 2.483a29.311 29.311 0 0 1 13.574 19.951 5.994 5.994 0 0 1 .092 1.044c.001 46.883-32.612 85.025-72.698 85.025zm-59.959-95.167a52.666 52.666 0 0 0 -.74 10.132c.07 40.272 27.3 73.035 60.7 73.035 33.316 0 60.449-32.458 60.7-72.47a17.394 17.394 0 0 0 -8.123-11.436c-10.4-6.644-28.6-7-51.234-1-30.994 8.218-51.286 4.855-61.303 1.739z" fill="#000000"/><ellipse cx="508.651" cy="134.971" rx="9.091" ry="12.5" fill="#000000"/><ellipse cx="448.722" cy="134.971" rx="9.091" ry="12.5" fill="#000000"/><path d="m545.38 119.138a6 6 0 0 1 -5.982-5.617c-.261-4.083-2.069-7.193-5.687-9.788-12.483-8.953-42.5-8.24-64.313-2.379-24.036 6.458-47.343 4.08-62.345-6.362a39.27 39.27 0 0 1 -17.034-29.5 6 6 0 0 1 8.714-5.89c.69.342 17.831 8.6 31.229-7.959 9.631-11.9 24.131-26.359 51-32.544a6 6 0 1 1 2.688 11.691c-23.155 5.331-35.417 17.347-44.359 28.4-10.974 13.56-24.679 15.85-35.028 14.41a27.13 27.13 0 0 0 9.645 11.542c11.953 8.321 32.023 10.091 52.376 4.622a147.8 147.8 0 0 1 38.446-4.779c10.878.135 25.949 1.8 35.974 8.995a24.491 24.491 0 0 1 10.669 18.773 6 6 0 0 1 -5.6 6.371c-.135.01-.264.014-.393.014z" fill="#000000"/></svg></g><!--ITEM: Illustration component 2--><g transform="translate(377.0 246.0) rotate(0.0 94.0 203.0)  scale(0.338862683107515 0.3392198278166943)"><svg width="554.797" height="1196.864" viewBox="0.0 0.0 554.797 1196.864"><path d="m385.748 1196.864h-280.548a2 2 0 1 1 0-4h280.548a2 2 0 1 1 0 4z" fill="#231e40"/><path d="m236.545 1196.864a2 2 0 0 1 -2-2l.07-548.918a2 2 0 0 1 2-2 2 2 0 0 1 2 2l-.07 548.918a2 2 0 0 1 -2 2z" fill="#231e40"/><path d="m465.25 450.49c-30.26-62.794-41.769-132.973-30.443-201.751l8.277-50.26c17.006-103.268-66.459-198.479-183.044-198.479h-46.989c-116.586 0-200.051 95.211-183.045 198.479l8.277 50.26c11.327 68.778-.183 138.961-30.443 201.751a85.513 85.513 0 0 0 -4.473 11.258 74.721 74.721 0 0 0 -1.943 36.777l34.909 180.421h402.975l30.728-176.9a74.8 74.8 0 0 0 -3.794-49.419q-.481-1.078-.992-2.137z" fill="rgb(14,211,207)"/><path d="m462.274 74.827c-30.568-44.575-97.465-63.9-160.08-69.759a57.3 57.3 0 0 1 1.883 14.59c0 31.61-25.63 56.627-57.234 57.235-3.494.067-6.216.24-10.263.218v379.554h232.174v-144.119l83.513-70.536z" fill="#fff"/><g fill="#231e40"><path d="m470.754 458.665h-236.174v-383.565l2.011.011c2.565.014 4.553-.051 6.653-.119 1.152-.038 2.307-.076 3.561-.1 30.994-.6 55.272-24.858 55.272-55.235a55.409 55.409 0 0 0 -1.817-14.081l-.727-2.766 2.848.267c45.14 4.223 126.15 19.009 161.543 70.623l.111.183 90.765 168.608-84.043 70.984zm-232.174-4h228.174v-143.048l82.982-70.088-89.172-165.659c-33.8-49.16-110.891-64.048-155.779-68.542a59.387 59.387 0 0 1 1.292 12.33c0 32.577-26 58.6-59.2 59.234-1.234.024-2.372.062-3.507.1-1.5.049-3.038.1-4.794.117z"/><path d="m441.664 145.066a2 2 0 0 1 -1.969-1.657l-4.795-27.557a2 2 0 0 1 3.942-.686l4.793 27.557a2 2 0 0 1 -1.628 2.313 1.938 1.938 0 0 1 -.343.03z"/><path d="m449.2 191.78a2 2 0 0 1 -1.969-1.658l-4.793-27.556a2 2 0 0 1 3.942-.686l4.793 27.557a2 2 0 0 1 -1.628 2.313 2.036 2.036 0 0 1 -.345.03z"/><path d="m458.756 246.713a2 2 0 0 1 -1.969-1.657l-4.787-27.556a2 2 0 0 1 3.942-.686l4.792 27.557a2 2 0 0 1 -1.628 2.313 1.946 1.946 0 0 1 -.35.029z"/><path d="m468.085 296.989a2 2 0 0 1 -1.969-1.658l-4.792-27.557a2 2 0 0 1 3.942-.685l4.792 27.556a2 2 0 0 1 -1.628 2.313 1.941 1.941 0 0 1 -.345.031z"/><path d="m285.075 439.653h-.021l-27.969-.294a2 2 0 0 1 .021-4h.022l27.969.294a2 2 0 0 1 -.022 4z"/><path d="m332.381 440.727h-.022l-27.968-.294a2 2 0 0 1 .021-4h.022l27.968.294a2 2 0 0 1 -.021 4z"/><path d="m388.136 441.313h-.022l-27.968-.294a2 2 0 0 1 .021-4h.022l27.968.294a2 2 0 0 1 -.021 4z"/><path d="m439.27 441.274h-.022l-27.969-.294a2 2 0 0 1 .022-4h.021l27.969.294a2 2 0 0 1 -.021 4z"/><path d="m431.486 92.867a2 2 0 0 1 -1.968-1.658l-4.793-27.556a2 2 0 0 1 3.941-.686l4.793 27.557a2 2 0 0 1 -1.628 2.313 2.027 2.027 0 0 1 -.345.03z"/></g></svg></g></svg>